<?xml version="1.0" encoding="utf-8"?>
<!-- Generator: Adobe Illustrator 17.0.0, SVG Export Plug-In . SVG Version: 6.00 Build 0)  -->
<!DOCTYPE svg PUBLIC "-//W3C//DTD SVG 1.1//EN" "http://www.w3.org/Graphics/SVG/1.1/DTD/svg11.dtd">
<svg version="1.1" id="图层_1" xmlns="http://www.w3.org/2000/svg" xmlns:xlink="http://www.w3.org/1999/xlink" x="0px" y="0px"
	 width="340.16px" height="113.39px" viewBox="0 0 340.16 113.39" enable-background="new 0 0 340.16 113.39" xml:space="preserve">
<g>
	<g>
		<g>
			<path fill="#FFFFFF" d="M42.677,43.59c0,0,4.195-0.333,5.29,1.637l2.632-4.952h-7.17L42.677,43.59z"/>
			<path fill="#FFFFFF" d="M40.562,57.595c0,0,2.445-0.11,3.446,1.249l2.428-4.569h-7.17L40.562,57.595z"/>
			<path fill="#FFFFFF" d="M25.124,71.559h-8.47V40.276h33.945l-3.641,3.317H25.124v10.682h20.756l-2.256,3.32h-18.5V71.559z"/>
		</g>
		<path fill="#FFFFFF" d="M82.07,57.958c-4.479-3.451-13.848-5.899-17.563-8.276c-1.459-0.933-1.771-2.254-1.236-3.419
			c0.69-1.504,4.072-3.256,7.411-3.278c0,0,6.928-0.511,10.386,4.223l4.214-3.587c-2.97-2.247-8.769-3.929-14.728-3.929
			c-8.283,0-16.411,3.203-16.411,7.94c0,2.056,1.039,3.789,2.725,5.075c5.056,3.855,13.763,6.147,17.702,9.13
			c1.199,0.908,1.911,2.258,1.462,3.452c-0.994,2.647-5.433,3.53-9.38,3.106c0,0-6.364-0.561-9.511-5.063l-4.466,3.802
			c4.038,3.308,9.342,4.631,14.272,4.943c10.289,0.651,18.23-2.305,18.447-8.429C85.472,61.412,84.237,59.611,82.07,57.958z"/>
		<g>
			<path fill="#FFFFFF" d="M120.979,66.259c0,0,0.163-3.14-0.052-5.149c-0.133-1.239-0.302-2.317-2.489-2.655l10.693-3.554v10.871
				L120.979,66.259z"/>
			<path fill="#FFFFFF" d="M120.91,65.902c-1.926,1.739-4.525,2.431-7.872,2.529c-10.209,0.301-16.15-5.009-16.15-12.68
				c0-7.398,5.795-12.003,15.744-12.38c0,0,7.791,0.058,11.702,4.058l0.011-0.009l4.786-4.075c-5.346-2.029-9.06-3.276-15.695-3.276
				c-13.81,0-24.65,7.298-24.65,16.425c0,7.511,7.717,15.27,24.166,15.27c4.572,0,10.584-0.998,16.179-2.992V56.439l-8.221,2.72
				V65.902z"/>
		</g>
	</g>
	<g>
		<g>
			<path fill="#FFFFFF" d="M150.315,52.049c0,0,0-4.739,0-6.614c0-1.231,0.081-2.478-1.641-2.793l8.09-2.375v11.33L150.315,52.049z"
				/>
			<rect x="150.315" y="44.504" fill="#FFFFFF" width="6.449" height="26.86"/>
			<rect x="154.911" y="51.62" fill="#FFFFFF" width="21.016" height="2.952"/>
			<rect x="138.368" y="68.412" fill="#FFFFFF" width="38.847" height="2.952"/>
		</g>
		<g>
			<rect x="218.465" y="49.655" fill="#FFFFFF" width="6.327" height="21.709"/>
			<rect x="198.05" y="49.656" fill="#FFFFFF" width="6.327" height="20.378"/>
			<polygon fill="#FFFFFF" points="195.046,47.561 189.02,47.561 185.619,40.901 191.645,40.901 			"/>
			<polygon fill="#FFFFFF" points="195.046,55.568 189.02,55.568 185.619,48.908 191.645,48.908 			"/>
			<polygon fill="#FFFFFF" points="185.619,71.365 191.645,71.365 194.906,57.443 188.881,57.443 			"/>
			<rect x="202.231" y="42.568" fill="#FFFFFF" width="24.054" height="2.708"/>
			<rect x="195.9" y="56.167" fill="#FFFFFF" width="30.385" height="2.708"/>
			<rect x="198.05" y="67.326" fill="#FFFFFF" width="28.235" height="2.708"/>
			<rect x="200.248" y="47.561" fill="#FFFFFF" width="24.544" height="2.708"/>
			<path fill="#FFFFFF" d="M198.713,40.946c1.392,0.314,0.746,1.991,0.177,3.118c-0.705,1.398-2.58,5.099-3.869,7.636h5.973
				l5.785-11.433L198.713,40.946z"/>
			<g>
				<polygon fill="#FFFFFF" points="216.976,67.602 213.182,60.005 207.199,60.005 210.993,67.602 				"/>
			</g>
			<polygon fill="#FFFFFF" points="215.669,58.121 212.312,51.398 206.329,51.398 209.686,58.121 			"/>
		</g>
		<g>
			<g>
				<polygon fill="#FFFFFF" points="248.095,64.384 242.593,53.365 236.781,53.365 242.283,64.384 				"/>
			</g>
			<path fill="#FFFFFF" d="M256.866,49.438c0,0,0-2.662,0-4.383c0-1.13,0.074-2.275-1.506-2.564l7.439-2.181v8.711L256.866,49.438z"
				/>
			<rect x="256.866" y="43.925" fill="#FFFFFF" width="5.932" height="27.44"/>
			<polygon fill="#FFFFFF" points="274.508,68.679 268.578,68.679 263.749,44.231 269.679,44.231 			"/>
			<rect x="238.088" y="44.145" fill="#FFFFFF" width="16.383" height="2.708"/>
			<path fill="#FFFFFF" d="M237.887,44.572c-0.537,1.325-1.907,4.691-3.198,7.727h5.616l4.955-12.033l-7.796,1.285
				C238.844,41.746,238.35,43.43,237.887,44.572z"/>
			<path fill="#FFFFFF" d="M249.62,44.145c-0.193,2.913-1.702,20.588-14.919,24.534l3.063,2.716
				c15.415-4.07,17.167-23.01,17.386-27.25H249.62z"/>
		</g>
		<g>
			<rect x="307.539" y="51.384" fill="#FFFFFF" width="14.761" height="2.717"/>
			<path fill="#FFFFFF" d="M306.902,69.599c8.1-6.141,9.725-16.082,9.725-16.082l5.673,0.584c0,0-4.089,12.324-12.17,17.729
				L306.902,69.599z"/>
			<path fill="#FFFFFF" d="M316.453,41.704c0,0,0,2.579,0,4.313c0,1.138,0.075,2.292-1.518,2.583l7.292,2.197v-8.673L316.453,41.704
				z"/>
			<rect x="294.169" y="42.523" fill="#FFFFFF" width="5.175" height="28.841"/>
			<g>
				<path fill="#FFFFFF" d="M301.443,50.05c0,0,0-3.85,0-5.448c0-1.049,0.069-2.112-1.399-2.381l6.997-2.025v9.467L301.443,50.05z"
					/>
				<polygon fill="#FFFFFF" points="307.041,71.365 301.442,71.365 301.442,42.912 307.041,41.517 				"/>
			</g>
			<rect x="285.07" y="41.429" fill="#FFFFFF" width="14.274" height="2.717"/>
			<polygon fill="#FFFFFF" points="322.227,44.145 305.36,44.145 305.245,41.429 322.227,41.429 			"/>
			<rect x="285.07" y="48.828" fill="#FFFFFF" width="14.274" height="2.717"/>
			<rect x="285.07" y="57.6" fill="#FFFFFF" width="14.274" height="2.717"/>
			<path fill="#FFFFFF" d="M286.636,71.76c0,0,2.846-2.739,2.846-7.003V41.429h-4.903l0.015,23.978
				c0.01,2.649-1.682,5.095-1.682,5.095L286.636,71.76z"/>
			<path fill="#FFFFFF" d="M313.147,54.877h-5.607c1.551,5.777,7.396,14.392,12.869,17.147l2.903-2.222
				C317.352,65.795,313.035,58.196,313.147,54.877z"/>
		</g>
	</g>
</g>
</svg>
